<?xml version="1.0" encoding="UTF-8" standalone="no"?>
<svg
   xmlns:dc="http://purl.org/dc/elements/1.1/"
   xmlns:cc="http://creativecommons.org/ns#"
   xmlns:rdf="http://www.w3.org/1999/02/22-rdf-syntax-ns#"
   xmlns:svg="http://www.w3.org/2000/svg"
   xmlns="http://www.w3.org/2000/svg"
   xmlns:sodipodi="http://sodipodi.sourceforge.net/DTD/sodipodi-0.dtd"
   xmlns:inkscape="http://www.inkscape.org/namespaces/inkscape"
   width="71.819679mm"
   height="42.48159mm"
   viewBox="0 0 71.81968 42.48159"
   version="1.1"
   id="svg8"
   inkscape:version="1.0 (4035a4fb49, 2020-05-01)"
   sodipodi:docname="jsoneditor_logo.svg">
  <defs
     id="defs2" />
  <sodipodi:namedview
     id="base"
     pagecolor="#ffffff"
     bordercolor="#666666"
     borderopacity="1.0"
     inkscape:pageopacity="0.0"
     inkscape:pageshadow="2"
     inkscape:zoom="0.5"
     inkscape:cx="40.048321"
     inkscape:cy="-28.256241"
     inkscape:document-units="mm"
     inkscape:current-layer="layer1"
     inkscape:document-rotation="0"
     showgrid="false"
     inkscape:window-width="1920"
     inkscape:window-height="1017"
     inkscape:window-x="-8"
     inkscape:window-y="32"
     inkscape:window-maximized="1"
     fit-margin-top="0"
     fit-margin-left="0"
     fit-margin-right="0"
     fit-margin-bottom="0" />
  <metadata
     id="metadata5">
    <rdf:RDF>
      <cc:Work
         rdf:about="">
        <dc:format>image/svg+xml</dc:format>
        <dc:type
           rdf:resource="http://purl.org/dc/dcmitype/StillImage" />
        <dc:title></dc:title>
      </cc:Work>
    </rdf:RDF>
  </metadata>
  <g
     inkscape:label="Layer 1"
     inkscape:groupmode="layer"
     id="layer1"
     transform="translate(-50.88029,-53.649603)">
    <g
       transform="matrix(2,0,0,2,-86.79013,-74.890397)"
       aria-label="JSON EDITOR"
       id="text12"
       style="font-size:10.5833px;line-height:1.25;font-family:'Wingdings 3';-inkscape-font-specification:'Wingdings 3, ';letter-spacing:0px;word-spacing:0px;stroke-width:0.264583">
      <path
         d="m 79.459857,64.383689 -0.69763,0.69763 v 3.839547 0.165364 q 0,0.387572 0.258381,0.527098 -0.06201,0.676959 -0.656288,1.105872 -0.594277,0.423745 -1.477941,0.423745 -1.627803,0 -2.092889,-1.276404 l -0.07235,-0.196369 q -0.05168,-0.149862 -0.129191,-0.201538 -0.07235,-0.05684 -0.284219,-0.09302 l 1.54512,-1.152381 q -0.08268,0.506428 -0.08268,1.02319 0,0.69763 0.273884,1.116208 0.279052,0.41341 0.749306,0.41341 0.935341,0 0.935341,-1.483109 v -4.273627 l -0.702797,-0.635619 z m 0.211872,0.289388 -0.506427,0.516762 v 3.777535 0.201538 l 0.07235,0.315225 q 0.06718,0.134358 0.284219,0.273884 -0.07235,0.439249 -0.444416,0.899167 -0.749306,0.935341 -2.103224,0.935341 -1.033525,0 -1.65364,-0.594277 v -0.04134 q 0.387572,0.294554 0.728635,0.408242 0.341063,0.10852 0.847491,0.10852 0.899167,0 1.601964,-0.475421 0.707965,-0.48059 0.868161,-1.193722 -0.23771,-0.191202 -0.289387,-0.325561 -0.05168,-0.134358 -0.05168,-0.5426 v -3.803374 l 0.568439,-0.568439 z m -3.338286,3.669015 -0.01034,0.06718 q -0.09818,0.583942 -0.09818,0.847491 0,1.002519 0.749306,1.364253 h -0.07751 q -0.811318,-0.237711 -0.811318,-1.276404 0,-0.527098 0.113688,-1.002519 z"
         style="font-style:normal;font-variant:normal;font-weight:normal;font-stretch:normal;font-family:Algerian;-inkscape-font-specification:Algerian;text-align:center;text-anchor:middle;stroke-width:0.264583"
         id="path20" />
      <path
         d="m 85.020223,64.440533 q -0.268717,0.361734 -0.428913,0.754474 -0.315225,0.775144 -0.418578,0.950843 l -0.02584,0.03101 q -0.02067,-0.05684 -0.03101,-0.08785 -0.144693,-0.465086 -0.237711,-0.645953 -0.09302,-0.180867 -0.279051,-0.346231 -0.470254,-0.418578 -1.069699,-0.418578 -0.552936,0 -0.919838,0.310058 -0.366901,0.30489 -0.366901,0.769976 0,0.868161 1.307409,1.183387 l 0.873329,0.211872 q 1.865514,0.449584 1.865514,1.968866 0,0.847491 -0.640786,1.426265 -0.635618,0.573607 -1.576126,0.573607 -0.58911,0 -1.317745,-0.180867 L 81.14967,70.791547 q -0.366901,-0.08785 -0.604612,-0.08785 -0.315225,0 -0.651121,0.201537 l -0.04134,-0.07235 q 0.640786,-0.966347 0.899167,-1.839675 l 0.09302,0.02584 q 0.10852,0.811317 0.65112,1.260901 0.542601,0.449583 1.421098,0.449583 0.692462,0 1.100704,-0.320393 0.408243,-0.320393 0.408243,-0.862993 0,-0.625283 -0.568439,-1.033526 -0.408243,-0.289387 -1.674311,-0.537433 -0.976682,-0.191202 -1.41593,-0.635618 -0.439248,-0.444416 -0.439248,-1.235063 0,-0.816485 0.583942,-1.322912 Q 81.501072,64.27 82.44158,64.27 q 0.604613,0 1.410762,0.21704 0.377237,0.103353 0.558104,0.103353 0.253214,0 0.552936,-0.1757 z m 0.320393,0.217041 -0.04651,0.07751 q -0.211873,0.356566 -0.361734,0.682127 -0.361734,0.759641 -0.408242,0.847491 l -0.02584,0.03617 -0.124023,-0.05168 0.02067,-0.04651 q 0.149861,-0.341063 0.434081,-0.888832 l 0.351398,-0.682126 0.02584,-0.04134 z m -1.508947,1.028357 q -0.568439,-0.604612 -1.21956,-0.604612 -0.39274,0 -0.651121,0.227376 -0.258381,0.227375 -0.258381,0.578774 0,0.382404 0.52193,0.785479 l 0.04134,0.02584 -0.02584,0.04134 q -0.682127,-0.30489 -0.682127,-0.883664 0,-0.403075 0.289387,-0.656289 0.289387,-0.253213 0.754474,-0.253213 0.444416,0 0.775144,0.191202 0.335895,0.186035 0.490924,0.527098 z m 1.188554,2.051548 q 0.702797,0.532266 0.702797,1.457271 0,0.987017 -0.764809,1.674311 -0.764808,0.682127 -1.860345,0.682127 -0.558104,0 -1.007687,-0.113688 l -0.826821,-0.201537 q -0.289387,-0.07235 -0.620115,-0.07235 -0.294555,0 -0.542601,0.118855 l -0.06201,-0.149861 q 0.268716,-0.124023 0.547768,-0.124023 0.310058,0 0.707965,0.09302 l 0.795815,0.191202 q 0.475421,0.113688 1.002519,0.113688 1.033526,0 1.756993,-0.656288 0.728636,-0.661457 0.728636,-1.596797 0,-0.790647 -0.558104,-1.384924 z m -3.67935,1.488277 q 0.191202,0.930173 1.02319,1.317745 v 0.04134 Q 81.402884,70.30579 81.201347,69.251594 Z m -0.645954,-1.674311 0.1757,0.09819 q 0.170531,0.30489 0.997352,0.506427 l 0.831988,0.206705 q 0.84749,0.211873 1.126542,0.366902 0.28422,0.149861 0.403075,0.459918 l -0.03617,0.02067 q -0.232544,-0.268717 -0.506428,-0.39274 -0.268716,-0.124023 -1.038693,-0.30489 -1.116207,-0.258381 -1.498612,-0.444416 -0.382404,-0.191202 -0.454751,-0.516762 z"
         style="font-style:normal;font-variant:normal;font-weight:normal;font-stretch:normal;font-family:Algerian;-inkscape-font-specification:Algerian;text-align:center;text-anchor:middle;stroke-width:0.264583"
         id="path22" />
      <path
         d="m 90.043155,65.53607 -0.08785,-0.05168 q -0.496092,-0.273884 -0.909502,-0.273884 -1.359086,0 -1.359086,2.671663 0,1.953363 0.842323,2.588981 l -0.04651,0.05168 q -0.516762,-0.366901 -0.73897,-0.961179 -0.217041,-0.599444 -0.217041,-1.617467 0,-2.868033 1.508947,-2.868033 0.687295,0 1.007687,0.459919 z m -1.105872,-1.21956 q 1.255734,0 2.00504,0.950844 0.754473,0.950843 0.754473,2.542472 0,1.503779 -0.744138,2.397779 -0.738971,0.893999 -1.989537,0.893999 -0.987016,0 -1.756993,-0.63045 -1.13171,-0.930173 -1.13171,-2.754345 0,-1.560624 0.775144,-2.480461 0.775144,-0.919838 2.087721,-0.919838 z m 0,0.444416 q -1.746658,0 -1.746658,3.069571 0,2.837027 1.72082,2.837027 0.800982,0 1.21956,-0.749306 0.418578,-0.754474 0.418578,-2.201409 0,-1.638138 -0.403075,-2.284091 -0.423745,-0.671792 -1.209225,-0.671792 z m 1.648473,-0.180867 q 0.738971,0.356567 1.167884,1.21956 0.428913,0.862994 0.428913,1.994704 0,1.663976 -0.847491,2.687166 -0.842323,1.02319 -2.216912,1.02319 -0.878496,0 -1.643305,-0.594277 v -0.02584 q 0.640786,0.470254 1.607132,0.470254 1.297074,0 2.129062,-0.976681 0.831988,-0.976682 0.831988,-2.495964 0,-1.13171 -0.382404,-1.979201 -0.377237,-0.847491 -1.074867,-1.266069 z"
         style="font-style:normal;font-variant:normal;font-weight:normal;font-stretch:normal;font-family:Algerian;-inkscape-font-specification:Algerian;text-align:center;text-anchor:middle;stroke-width:0.264583"
         id="path24" />
      <path
         d="m 98.54907,64.383689 q -0.58911,0.30489 -0.759641,0.558104 -0.258382,0.39274 -0.258382,1.183387 v 0.335895 4.55268 h -0.873329 l -2.439119,-4.733547 v 2.806022 l -0.0052,0.232543 0.06201,0.744138 q 0.103352,0.516763 0.470254,0.764809 l 0.04134,0.03617 Q 94.07387,70.62618 94.07387,69.339441 l 0.0052,-0.485757 v -2.826692 l -0.279052,-0.542601 v 2.976553 q 0,1.41593 0.186034,1.855178 0.186035,0.439248 0.873329,0.640786 l 0.449584,0.480589 h -2.800854 l -0.08268,-0.139526 h 2.588981 l -0.268716,-0.284219 h -2.408115 q 0.630451,-0.227376 0.837156,-0.60978 0.206705,-0.382405 0.206705,-1.312578 v -4.134101 l -0.687294,-0.573607 h 2.614819 l -0.733803,0.490925 2.501131,4.87824 v -0.620116 l -2.144565,-4.175442 0.723468,-0.490925 0.09819,0.09819 -0.640786,0.434081 1.963698,3.85505 v -2.413282 -0.273884 q 0,-0.899167 -0.149861,-1.19889 -0.144693,-0.30489 -0.723468,-0.583942 z m 0.180867,0.382405 -0.09302,0.155029 q -0.397908,0.09302 -0.542601,0.346231 Q 97.95479,65.5154 97.95479,66.109677 V 71.4375 h -1.11104 l -0.06718,-0.139526 h 1.038693 v -5.136621 q 0,-0.728635 0.186034,-1.012855 0.191203,-0.289387 0.728636,-0.382404 z"
         style="font-style:normal;font-variant:normal;font-weight:normal;font-stretch:normal;font-family:Algerian;-inkscape-font-specification:Algerian;text-align:center;text-anchor:middle;stroke-width:0.264583"
         id="path26" />
      <path
         d="m 74.648796,77.707674 -0.08268,0.09819 q -0.527098,0.645953 -0.837155,1.483109 -0.05168,-0.118855 -0.07752,-0.175699 -0.284219,-0.620116 -0.60978,-0.800982 -0.32556,-0.180867 -1.167883,-0.180867 -0.387572,0 -0.930173,0.02584 v 2.377108 h 0.330728 v -2.103224 q 0.39274,-0.03617 0.749306,-0.03617 0.656288,0 0.966346,0.139526 0.310058,0.139525 0.552936,0.5426 -0.07235,-0.05168 -0.103352,-0.07751 -0.418578,-0.330728 -0.604613,-0.39274 -0.186034,-0.06201 -0.733803,-0.06201 -0.165364,0 -0.589109,0.02067 l -0.10852,0.0052 v 1.963698 h 0.950843 l 0.666624,-0.91467 V 81.84699 L 72.35437,80.98395 h -1.410762 v 2.899038 h 0.330728 v -2.65616 h 1.121375 l 0.134358,0.134358 h -1.126542 v 2.521802 q 1.054195,0 1.498611,-0.149861 0.444416,-0.149861 0.69763,-0.589109 l 0.273884,-0.470254 q 0.0155,-0.03101 0.06201,-0.113688 0.134358,0.568439 0.330728,0.909502 0.201537,0.341063 0.661456,0.795815 h -5.79291 l 0.78548,-0.599445 v -2.304762 q -0.434081,0.05168 -0.78548,0.268717 l -0.07235,-0.10852 q 0.315225,-0.227376 0.857826,-0.294555 V 80.98395 q -0.08785,-0.01034 -0.124023,-0.01034 -0.527098,0 -0.961179,0.387572 0.237711,-0.82682 1.085202,-0.82682 v -2.206577 l -0.78548,-0.620115 z m 0.248046,0.361734 -0.03617,0.04651 q -0.630451,0.847491 -0.842323,1.421097 l -0.08785,-0.10852 q 0.346231,-0.800982 0.893999,-1.467606 z m -1.519282,1.72082 v 2.284091 l -0.129191,-0.06718 v -2.284091 z m 2.139397,4.50617 -0.268716,0.465087 h -5.643049 l -0.08268,-0.139526 h 5.658552 l 0.175699,-0.325561 q -0.744138,-0.687294 -1.049028,-1.467606 l 0.165364,0.06201 q 0.284219,0.661456 0.961178,1.322912 z"
         style="font-style:normal;font-variant:normal;font-weight:normal;font-stretch:normal;font-family:Algerian;-inkscape-font-specification:Algerian;text-align:center;text-anchor:middle;stroke-width:0.264583"
         id="path28" />
      <path
         d="m 75.775339,77.707674 h 2.036045 q 1.493444,0 2.211744,0.573607 1.069699,0.847491 1.069699,2.65616 0,1.875848 -0.935341,2.713004 -0.423745,0.377237 -0.950843,0.532266 -0.52193,0.155028 -1.390092,0.155028 H 75.62031 l 0.707965,-0.5426 v -5.493188 z m 1.565791,0.434081 v 5.798077 h 0.284219 v -5.457014 q 0.268717,-0.04134 0.490925,-0.04134 0.423745,0 0.666624,0.08785 0.248046,0.08268 0.496092,0.310057 -0.547769,-0.258381 -1.173052,-0.258381 -0.134358,0 -0.351398,0.02067 v 5.338158 q 0.578774,0 0.878496,-0.09302 0.299723,-0.09819 0.568439,-0.372069 0.749306,-0.759641 0.749306,-2.552808 0,-1.751825 -0.811317,-2.392611 -0.490925,-0.387572 -1.555456,-0.387572 z m -1.400427,6.61973 -0.07752,-0.139526 h 1.891352 q 1.395259,0 2.118727,-0.387572 1.555455,-0.82682 1.555455,-3.198761 0,-1.586462 -0.697629,-2.356438 l -0.206705,-0.227376 q -0.01033,-0.01033 -0.06201,-0.07235 1.095537,0.687294 1.095537,2.630322 0,2.041212 -1.085201,3.007559 -0.831988,0.744138 -2.718172,0.744138 z"
         style="font-style:normal;font-variant:normal;font-weight:normal;font-stretch:normal;font-family:Algerian;-inkscape-font-specification:Algerian;text-align:center;text-anchor:middle;stroke-width:0.264583"
         id="path30" />
      <path
         d="m 82.007496,77.707674 h 2.449455 l -0.692462,0.702797 v 5.3795 l 0.651121,0.547768 h -2.408114 l 0.7183,-0.594277 v -5.389834 z m 2.681998,0.294555 -0.527098,0.52193 v 5.265812 l 0.868162,0.971514 h -2.687166 l -0.129191,-0.139526 h 2.511467 l -0.707965,-0.780312 v -5.363996 l 0.583942,-0.578775 z"
         style="font-style:normal;font-variant:normal;font-weight:normal;font-stretch:normal;font-family:Algerian;-inkscape-font-specification:Algerian;text-align:center;text-anchor:middle;stroke-width:0.264583"
         id="path32" />
      <path
         d="m 91.01467,77.707674 q -0.04651,0.08785 -0.06201,0.118856 l -0.351398,0.620115 q -0.180867,0.330728 -0.335896,0.82682 l -0.01034,0.02584 -0.05168,-0.03617 -0.0155,-0.06718 q -0.149861,-0.58911 -0.428913,-0.816485 -0.273884,-0.227376 -0.842323,-0.227376 -0.232543,0 -0.465086,0.02067 h -0.06201 v 5.601707 l 0.60978,0.563271 H 86.63769 l 0.723468,-0.604612 v -5.141789 l -0.366902,-0.0052 q -0.532266,0 -0.759641,0.211872 -0.222208,0.206706 -0.263549,0.733803 h -0.134358 q 0.05684,-0.604612 0.310057,-0.842323 0.258382,-0.237711 0.847491,-0.237711 l 0.310058,0.0052 h 0.05684 v -0.253214 q -0.263549,-0.03101 -0.50126,-0.03101 -0.666624,0 -0.961179,0.273884 -0.294555,0.268716 -0.32556,0.91467 h -0.06201 q -0.222208,-0.7183 -0.687294,-1.601965 l -0.03101,-0.05168 z m 0.32556,0.325561 q -0.356566,0.454751 -0.749306,1.508947 l -0.02067,0.05168 -0.113688,-0.09819 0.0155,-0.04651 q 0.382404,-1.069698 0.73897,-1.488276 l 0.02584,-0.03101 z m -1.379756,0.806149 q -0.397907,-0.258381 -0.930173,-0.258381 -0.118855,0 -0.248046,0.0155 l 0.02067,5.193465 0.821653,0.971514 h -2.640657 l -0.118856,-0.139526 h 2.475294 l -0.692462,-0.790647 v -5.384667 l 0.279051,-0.0052 q 0.50126,0 0.707965,0.08268 0.211873,0.07752 0.325561,0.315225 z"
         style="font-style:normal;font-variant:normal;font-weight:normal;font-stretch:normal;font-family:Algerian;-inkscape-font-specification:Algerian;text-align:center;text-anchor:middle;stroke-width:0.264583"
         id="path34" />
      <path
         d="m 95.376148,78.860055 -0.08785,-0.05168 q -0.496092,-0.273884 -0.909502,-0.273884 -1.359086,0 -1.359086,2.671663 0,1.953362 0.842323,2.588981 l -0.04651,0.05168 q -0.516762,-0.366902 -0.73897,-0.961179 -0.217041,-0.599444 -0.217041,-1.617467 0,-2.868033 1.508947,-2.868033 0.687295,0 1.007689,0.459919 z m -1.105872,-1.21956 q 1.255733,0 2.005039,0.950843 0.754473,0.950844 0.754473,2.542473 0,1.503779 -0.744138,2.397779 -0.738971,0.893999 -1.989536,0.893999 -0.987017,0 -1.756993,-0.63045 -1.131711,-0.930173 -1.131711,-2.754346 0,-1.560623 0.775144,-2.48046 0.775144,-0.919838 2.087722,-0.919838 z m 0,0.444416 q -1.746658,0 -1.746658,3.06957 0,2.837027 1.720819,2.837027 0.800983,0 1.21956,-0.749306 0.418578,-0.754473 0.418578,-2.201409 0,-1.638137 -0.403075,-2.284091 -0.423745,-0.671791 -1.209224,-0.671791 z m 1.648473,-0.180867 q 0.73897,0.356566 1.167883,1.21956 0.428913,0.862994 0.428913,1.994704 0,1.663976 -0.847491,2.687166 -0.842323,1.02319 -2.216911,1.02319 -0.878497,0 -1.643306,-0.594277 v -0.02584 q 0.640786,0.470254 1.607132,0.470254 1.297074,0 2.129062,-0.976682 0.831988,-0.976681 0.831988,-2.495963 0,-1.131711 -0.382404,-1.979202 -0.377237,-0.84749 -1.074866,-1.266068 z"
         style="font-style:normal;font-variant:normal;font-weight:normal;font-stretch:normal;font-family:Algerian;-inkscape-font-specification:Algerian;text-align:center;text-anchor:middle;stroke-width:0.264583"
         id="path36" />
      <path
         d="m 98.228676,78.327789 q 1.224728,-0.707964 2.635494,-0.707964 1.09553,0 1.8035,0.475421 0.71313,0.475422 0.71313,1.209225 0,0.599445 -0.46509,1.064531 -0.46508,0.459919 -1.27123,0.666624 0.35656,0.981849 0.96634,1.912022 0.61495,0.930173 1.2299,1.426265 l -0.0775,0.02584 q -0.76997,0.263549 -1.50894,0.744138 l -0.0775,0.05168 -0.0258,-0.165364 q -0.33073,-1.999871 -0.92501,-3.389963 l -0.0207,-0.05168 q -0.35657,0.165364 -0.95601,0.263549 l -0.0413,0.0052 v 1.932692 l 0.9095,0.971514 h -2.671663 l -0.08268,-0.139526 h 2.459793 l -0.74931,-0.795815 v -2.082553 l 0.10852,-0.0155 q 0.58911,-0.06201 0.98702,-0.232543 -0.031,-0.06201 -0.0362,-0.07752 l -0.0517,-0.149861 q -0.005,-0.0155 -0.0258,-0.06201 -0.32039,0.09302 -1.209224,0.201537 l -0.05684,0.01033 v 2.304762 l 0.589114,0.614947 h -2.284096 l 0.671792,-0.614947 v -1.736323 l -0.04134,0.0052 q -0.299723,0.06718 -0.542601,0.149861 l -0.04134,0.0155 -0.04651,-0.103353 q 0.227376,-0.08785 0.356566,-0.118855 l 0.273885,-0.06718 0.04134,-0.01033 v -0.268717 q -0.30489,0 -0.759641,0.134358 l -0.05684,0.02067 q 0.01033,-0.07235 0.103352,-0.335896 0.01033,-0.02067 0.07235,-0.232543 0.0052,-0.0155 0.0155,-0.04651 0.232543,0.0155 0.361734,0.0155 0.139526,0 0.258381,-0.0155 V 78.586171 Q 98.523231,78.441477 98.270017,78.343292 Z M 99.7893,78.193431 v 2.785351 q 0.149861,0 0.28422,-0.02584 v -2.542473 q 0.28422,-0.07751 0.68213,-0.07751 1.00768,0 1.36942,0.661456 -0.38241,-0.310057 -0.67179,-0.423745 -0.28939,-0.118856 -0.69247,-0.118856 -0.31522,0 -0.55293,0.06201 v 2.43912 l 0.0568,-0.01033 q 1.01802,-0.186035 1.50895,-0.583942 0.49609,-0.403075 0.49609,-1.043861 0,-0.573606 -0.44442,-0.945676 -0.44441,-0.377236 -1.12137,-0.377236 -0.5426,0 -0.91467,0.201537 z m 2.49596,3.100576 q 0.32556,1.064531 1.15238,2.082554 0.51677,0.635618 1.30741,1.142045 -1.18338,0.315226 -2.22208,0.961179 l -0.0465,0.03101 -0.10336,-0.08268 q 0.98702,-0.645954 2.10323,-0.950844 -1.48828,-0.992184 -2.34094,-3.172923 l -0.031,-0.08785 q 1.58129,-0.599445 1.58129,-1.82934 0,-0.506428 -0.40824,-1.105872 0.52193,0.475421 0.52193,1.209224 0,1.188555 -1.51412,1.803502 z"
         style="font-style:normal;font-variant:normal;font-weight:normal;font-stretch:normal;font-family:Algerian;-inkscape-font-specification:Algerian;text-align:center;text-anchor:middle;stroke-width:0.264583"
         id="path38" />
    </g>
  </g>
</svg>
